<svg width="1440" height="853" viewBox="0 0 1440 853" fill="none" xmlns="http://www.w3.org/2000/svg">
<path fill-rule="evenodd" clip-rule="evenodd" d="M-401.304 7.28333V14.5667H-408.599H-415.895V29.1333V43.7H-407.32H-398.746L-395.637 57.1742C-393.928 64.5842 -392.533 71.1392 -392.539 71.7408C-392.545 72.3424 -397.802 72.8333 -404.222 72.8333H-415.895V87.1917V101.55L-401.238 102.558C-393.177 103.112 -385.33 104.028 -383.799 104.593C-380.009 105.993 -363.724 138.916 -367.373 137.802C-379.564 134.082 -389.566 132.252 -401.669 131.528L-415.895 130.676V145.238V159.801L-403.857 160.699C-356.357 164.248 -312.018 197.437 -294.624 242.464C-262.941 324.484 -317.447 411.447 -406.046 420.232L-415.895 421.208V435.868V450.53L-404.111 449.548C-304.263 441.235 -236.466 347.444 -260.694 251.147C-263.769 238.931 -264.23 239.032 -246.063 247.965C-227.217 257.236 -228.371 254.385 -228.505 291.333C-228.872 392.175 -301.704 469.597 -404.587 478.512L-415.895 479.492V494.144V508.795L-402.571 507.791C-285.22 498.946 -198.493 406.544 -198.381 290.241C-198.369 277.221 -197.99 266.57 -197.541 266.57C-197.091 266.57 -193.017 267.489 -188.487 268.611C-183.958 269.734 -177.696 271.092 -174.572 271.629L-168.891 272.606L-169.716 297.629C-173.908 425.098 -274.392 529.52 -398.751 535.638L-415.895 536.482V551.704V566.924L-408.598 566.42L-401.303 565.915V580.482V595.048L-408.651 594.54L-416 594.032L-415.583 609.107L-415.165 624.182L-406.786 624.619C-399.527 624.996 -398.306 625.484 -397.667 628.26C-393.566 646.064 -392.589 650.651 -392.571 652.177C-392.555 653.5 -395.519 653.723 -404.222 653.053L-415.895 652.156V666.812V681.471L-404.587 682.496C-380.378 684.69 -382.704 683.242 -373.365 701.928C-366.028 716.613 -365.467 718.342 -368.259 717.714C-387.154 713.462 -394.023 712.256 -404.111 711.416L-415.895 710.434V724.977V739.519L-401.816 741.247C-315.822 751.797 -263.592 838.165 -294.624 918.5C-312.018 963.527 -356.357 996.715 -403.857 1000.26L-415.895 1001.16V1015.72V1030.29L-401.669 1029.44C-305.579 1023.71 -236.63 926.259 -260.97 830.572C-262.434 824.814 -263.506 820.103 -263.351 820.103C-260.845 820.103 -230.585 836.886 -229.82 838.701C-227.348 844.561 -227.31 887.601 -229.763 901.677C-244.666 987.209 -316.251 1052.56 -401.451 1058.42L-415.895 1059.41V1073.99V1088.58L-399.48 1087.63C-286.825 1081.14 -198.439 985.589 -198.415 870.264L-198.409 846.864L-184.224 850.032L-170.038 853.199L-170.218 877.802C-171.117 1001.5 -268.913 1104.8 -395.832 1116.1L-415.895 1117.89V1132.14V1146.4H-408.599H-401.304V1160.96V1175.53H-408.599H-415.895V1190.1V1204.66H-407.956C-403.589 1204.66 -399.595 1205.35 -399.079 1206.18C-398.097 1207.76 -392.55 1230.07 -392.55 1232.43C-392.55 1233.18 -397.802 1233.8 -404.222 1233.8H-415.895V1248.16V1262.51L-401.238 1263.52C-393.177 1264.07 -385.33 1264.99 -383.799 1265.56C-380.009 1266.96 -363.724 1299.88 -367.373 1298.77C-379.564 1295.05 -389.566 1293.22 -401.669 1292.49L-415.895 1291.64V1306.2V1320.76L-403.857 1321.66C-356.406 1325.21 -312 1358.45 -294.624 1403.43C-262.933 1485.47 -317.425 1572.41 -406.046 1581.2L-415.895 1582.17V1596.83V1611.49L-404.111 1610.51C-304.272 1602.2 -236.46 1508.43 -260.678 1412.18C-263.772 1399.89 -264.24 1399.99 -246.063 1408.93C-227.217 1418.2 -228.371 1415.35 -228.505 1452.3C-228.872 1553.14 -301.704 1630.56 -404.587 1639.48L-415.895 1640.46V1655.11V1669.76L-402.571 1668.75C-285.22 1659.91 -198.493 1567.51 -198.381 1451.2C-198.369 1438.19 -197.99 1427.53 -197.541 1427.53C-197.091 1427.53 -193.017 1428.45 -188.487 1429.57C-183.958 1430.7 -177.696 1432.05 -174.572 1432.59L-168.891 1433.57L-169.716 1458.59C-173.902 1585.89 -273.041 1689.13 -398.386 1696.73L-415.165 1697.75L-415.583 1712.82L-416 1727.9L-408.651 1727.39L-401.303 1726.88V1737.44L-401.304 1748H-386.772H-372.24L-371.816 1736.03L-371.393 1724.06L-361.179 1721.73C-355.562 1720.45 -349.161 1718.94 -346.953 1718.38L-342.94 1717.35V1732.68V1748H-328.573H-314.204L-313.279 1730.88C-311.968 1706.65 -312.934 1708.29 -294.445 1699.03C-275.63 1689.61 -276.749 1689.36 -280.356 1702.14C-283.097 1711.84 -285.829 1737.78 -284.839 1744.72C-284.393 1747.87 -283.799 1748 -269.884 1748H-255.395V1738.07C-255.395 1644.8 -151.455 1582.57 -66.7522 1625.12C-24.262 1646.46 1.43256 1685.92 5.26559 1735.7L6.21257 1748H20.8107H35.4104L34.5072 1732.34C28.8387 1633.97 -67.8771 1562.11 -162.493 1585.97C-169.579 1587.76 -175.526 1589.22 -175.708 1589.22C-175.892 1589.22 -172.338 1581.87 -167.812 1572.88C-157.941 1553.27 -159.183 1553.84 -126.266 1553.69C-25.2352 1553.2 53.703 1626.47 63.0456 1729.4L64.7352 1748H79.2546H93.774L92.8854 1731.61C86.3998 1611.91 -12.0392 1520.61 -131.076 1523.91C-148.394 1524.38 -148.995 1524.3 -148.343 1521.49C-147.971 1519.89 -146.569 1513.53 -145.225 1507.36L-142.784 1496.14L-136.246 1495.16C-127.1 1493.79 -100.087 1495.72 -81.0337 1499.11C30.0541 1518.86 116.143 1616.25 120.615 1727.24L121.453 1748H136.572H151.691V1737.8V1727.61H165.552H179.414V1737.8V1748H194.734H210.055V1735.92V1723.83L222.707 1721.21C229.665 1719.77 236.162 1718.28 237.146 1717.9C238.516 1717.38 238.749 1720.8 238.145 1732.61L237.359 1748H251.971H266.583L267.655 1733.8C268.245 1725.99 269.149 1716.79 269.667 1713.37L270.607 1707.14L286.616 1699.25C305.581 1689.89 304.185 1689.37 300.53 1704.45C298.899 1711.18 297.143 1723.73 296.63 1732.34L295.695 1748H310.294H324.892L325.839 1735.7C332.904 1643.93 420.68 1587.63 505.163 1620.69C551.889 1638.97 586.5 1688.53 586.5 1737.17V1748H601.091H615.682L615.657 1734.53C615.501 1651.39 543.871 1583.06 456.641 1582.82C431.82 1582.75 427.928 1583.22 408.851 1588.63C405.853 1589.48 406.266 1588.11 413.561 1573.01C422.835 1553.81 420.89 1554.92 447.887 1553.39C551.467 1547.51 644.772 1634.7 644.855 1737.44L644.864 1748H659.679H674.493L673.593 1727.97C668.508 1614.81 573.224 1524.83 458.1 1524.48L432.566 1524.4L435.446 1510.24L438.325 1496.08L444.93 1495.08C453.876 1493.72 490.819 1496.81 506.98 1500.27C619.788 1524.41 703.227 1626.09 703.227 1739.41V1748H717.818H732.409V1737.44V1726.88H747H761.591V1737.44V1748H776.123H790.655L791.079 1736.03L791.502 1724.06L801.716 1721.73C807.333 1720.45 813.734 1718.94 815.942 1718.38L819.955 1717.35V1732.68V1748H834.322H848.691L849.616 1730.88C850.927 1706.65 849.961 1708.29 868.45 1699.03C887.265 1689.61 886.146 1689.36 882.539 1702.14C879.798 1711.84 877.066 1737.78 878.055 1744.72C878.502 1747.87 879.096 1748 893.011 1748H907.5V1738.07C907.5 1666.36 973.2 1606.4 1046.11 1611.57C1113.1 1616.32 1162.87 1666.94 1168.16 1735.7L1169.11 1748H1183.71H1198.31L1197.4 1732.34C1191.73 1633.97 1095.02 1562.11 1000.4 1585.97C993.316 1587.76 987.395 1589.22 987.242 1589.22C987.09 1589.22 990.589 1581.76 995.018 1572.64L1003.07 1556.05L1017.61 1554.23C1122.1 1541.11 1216.02 1620.08 1225.94 1729.4L1227.63 1748H1242.15H1256.67L1255.78 1731.61C1249.29 1611.91 1150.86 1520.61 1031.82 1523.91C1014.5 1524.38 1013.9 1524.3 1014.55 1521.49C1014.92 1519.89 1016.33 1513.53 1017.67 1507.36L1020.11 1496.14L1026.65 1495.16C1035.79 1493.79 1062.81 1495.72 1081.86 1499.11C1192.63 1518.8 1279.08 1616.3 1283.51 1726.51L1284.37 1748H1299.48H1314.59V1737.8V1727.61H1328.45H1342.31V1737.8V1748H1357.63H1372.95V1735.92V1723.83L1385.6 1721.21C1392.56 1719.77 1399.06 1718.28 1400.04 1717.9C1401.41 1717.38 1401.64 1720.8 1401.04 1732.61L1400.25 1748H1414.87H1429.48L1430.55 1733.8C1431.14 1725.99 1432.04 1716.79 1432.56 1713.37L1433.5 1707.14L1449.51 1699.25C1468.48 1689.89 1467.08 1689.37 1463.43 1704.45C1461.79 1711.18 1460.04 1723.73 1459.52 1732.34L1458.59 1748H1473.19H1487.79L1488.73 1735.7C1495.8 1643.93 1583.58 1587.63 1668.06 1620.69C1715.18 1639.12 1749.39 1688.5 1749.39 1738.07V1748H1763.99H1778.58L1778.55 1734.53C1778.4 1651.39 1706.77 1583.06 1619.54 1582.82C1594.72 1582.75 1590.82 1583.22 1571.75 1588.63C1568.75 1589.48 1569.16 1588.11 1576.46 1573.01C1585.73 1553.81 1583.79 1554.92 1610.78 1553.39C1714.18 1547.52 1807.67 1634.88 1807.75 1737.44L1807.76 1748H1822.57H1837.39L1836.49 1727.97C1831.4 1614.81 1736.12 1524.83 1621 1524.48L1595.46 1524.4L1598.34 1510.24L1601.22 1496.08L1607.83 1495.08C1616.77 1493.72 1653.71 1496.81 1669.87 1500.27C1782.68 1524.41 1866.12 1626.09 1866.12 1739.41V1748H1880.71H1895.3L1895.3 1737.44V1726.88L1902.6 1727.38L1909.89 1727.89V1712.45V1697.02H1901.17C1893.32 1697.02 1892.37 1696.69 1891.69 1693.74C1887.66 1676.31 1886.59 1671.27 1886.57 1669.75C1886.56 1668.43 1889.52 1668.2 1898.22 1668.87L1909.89 1669.77V1655.11V1640.46L1898.59 1639.43C1874.38 1637.24 1876.7 1638.68 1867.37 1620C1860.03 1605.31 1859.47 1603.58 1862.26 1604.21C1881.15 1608.46 1888.02 1609.67 1898.11 1610.51L1909.89 1611.49V1596.83V1582.17L1900.05 1581.2C1811.38 1572.4 1756.92 1485.51 1788.62 1403.43C1806.02 1358.4 1850.36 1325.21 1897.86 1321.66L1909.89 1320.76V1306.2V1291.64L1895.67 1292.49C1799.63 1298.21 1730.64 1395.72 1754.97 1491.35C1756.43 1497.11 1757.51 1501.82 1757.35 1501.82C1754.84 1501.82 1724.58 1485.04 1723.82 1483.23C1721.35 1477.37 1721.31 1434.33 1723.76 1420.25C1738.67 1334.72 1810.25 1269.37 1895.45 1263.51L1909.89 1262.51V1247.93V1233.35L1893.48 1234.3C1780.85 1240.78 1692.42 1336.36 1692.39 1451.66L1692.38 1475.06L1678.21 1471.89L1664.04 1468.73L1664.22 1444.12C1665.12 1320.29 1762.77 1217.14 1889.83 1205.83L1909.89 1204.04V1189.78V1175.53H1902.6H1895.3V1160.96V1146.4H1902.6H1909.89V1131.83V1117.26H1901.96C1891.86 1117.26 1892.52 1118.36 1887.21 1092.86L1886.22 1088.13H1898.06H1909.89V1073.77V1059.41L1895.24 1058.41C1887.18 1057.85 1879.33 1056.94 1877.8 1056.37C1874.01 1054.97 1857.72 1022.05 1861.37 1023.16C1873.56 1026.88 1883.57 1028.71 1895.67 1029.44L1909.89 1030.29V1015.72V1001.16L1897.86 1000.26C1850.41 996.72 1806 963.48 1788.62 918.5C1756.92 836.417 1811.38 749.523 1900.05 740.731L1909.89 739.755V725.095V710.434L1898.11 711.416C1798.1 719.742 1730.58 813.342 1754.78 910.105C1757.76 921.996 1758.19 921.911 1740.06 912.998C1721.22 903.728 1722.37 906.578 1722.51 869.63C1722.87 768.788 1795.7 691.366 1898.59 682.451L1909.89 681.471V666.82V652.169L1896.57 653.172C1779.22 662.017 1692.49 754.419 1692.38 870.723C1692.37 883.742 1691.99 894.393 1691.54 894.393C1691.09 894.393 1687.02 893.474 1682.49 892.353C1677.96 891.229 1671.7 889.872 1668.57 889.334L1662.89 888.357L1663.72 863.334C1667.9 736.038 1767.04 632.796 1892.39 625.198L1909.17 624.182L1909.58 609.107L1910 594.032L1902.65 594.54L1895.3 595.048V580.482V565.915L1902.6 566.42L1909.89 566.924V551.49V536.053H1901.17C1893.31 536.053 1892.37 535.729 1891.71 532.776C1891.31 530.972 1889.98 525.034 1888.76 519.576C1887.55 514.117 1886.55 509.058 1886.55 508.332C1886.55 507.577 1891.55 507.396 1898.22 507.911L1909.89 508.808V494.151V479.492L1898.59 478.467C1874.36 476.272 1876.72 477.753 1867.23 458.812C1862.63 449.619 1858.85 441.951 1858.84 441.771C1858.83 441.59 1860.62 442.122 1862.81 442.952C1869.48 445.487 1885.69 448.514 1898.11 449.548L1909.89 450.53V435.868V421.208L1900.05 420.232C1800.86 410.397 1747.64 304.202 1799.89 220.343C1820.67 186.986 1859.09 163.595 1897.86 160.699L1909.89 159.801V145.051V130.302L1896.13 131.305C1798.67 138.421 1730.57 234.471 1754.97 330.391C1756.43 336.149 1757.51 340.86 1757.35 340.86C1754.84 340.86 1724.58 324.078 1723.82 322.263C1721.35 316.403 1721.31 273.362 1723.76 259.287C1738.67 173.724 1810.22 108.404 1895.45 102.544L1909.89 101.55V86.9732V72.3963L1894.21 73.2383C1781.36 79.2966 1692.42 175.123 1692.39 290.695L1692.38 314.094L1678.21 310.928L1664.04 307.765L1664.22 283.161C1665.12 159.441 1762.89 56.1691 1889.83 44.8624L1909.89 43.0765V28.8216V14.5667H1902.6H1895.3V7.28333V0H1880.71H1866.12V8.56083V17.1202L1852.63 20.2244C1845.2 21.9301 1838.64 23.3227 1838.03 23.3169C1837.43 23.311 1836.94 18.0627 1836.94 11.6533V0H1822.56H1808.18L1807.17 14.6322C1806.61 22.6803 1805.69 30.5143 1805.13 32.0423C1803.73 35.8267 1770.75 52.0846 1771.86 48.4415C1775.59 36.271 1777.42 26.2856 1778.15 14.2025L1779 0H1764.41H1749.83L1748.93 12.0175C1742.33 100.039 1645.29 155.804 1564.5 118.005C1521.35 97.8166 1493.79 58.3526 1488.96 9.8325L1487.99 0H1473.3H1458.62L1459.6 11.764C1467.95 111.672 1561.63 179.029 1658.62 154.855C1670.53 151.887 1670.45 151.457 1661.52 169.55C1652.23 188.364 1655.09 187.212 1618.08 187.078C1516.68 186.711 1439.98 114.53 1430.52 10.5608L1429.56 0H1414.91H1400.25L1401.26 13.3023C1410.12 130.458 1502.67 217.04 1619.17 217.153C1632.21 217.164 1642.88 217.638 1642.87 218.201C1642.87 218.767 1642.26 221.523 1641.52 224.327C1640.78 227.131 1639.41 233.287 1638.46 238.008L1636.75 246.59L1611.73 245.77C1484.18 241.588 1379.49 141.158 1373.37 17.1158L1372.52 0H1357.27H1342.03L1342.53 7.28479L1343.04 14.5681H1328.45H1313.86L1314.36 7.28479L1314.87 0H1299.41H1283.95V8.71232C1283.95 16.5594 1283.62 17.4975 1280.66 18.1559C1278.86 18.5579 1272.91 19.8806 1267.44 21.0969C1261.97 22.3118 1256.91 23.3067 1256.18 23.3067C1255.42 23.3067 1255.24 18.3118 1255.76 11.6533L1256.65 0H1241.97H1227.29L1226.26 11.2892C1224.07 35.4582 1225.52 33.1363 1206.8 42.4589C1192.09 49.7845 1190.36 50.3439 1190.99 47.5573C1195.25 28.6934 1196.45 21.8354 1197.3 11.764L1198.28 0H1183.59H1168.91L1167.93 9.8325C1159.13 98.2842 1072.02 152.699 989.867 121.069C944.765 103.704 911.521 59.4393 907.967 12.0175L907.067 0H892.292H877.519L878.524 13.7393C885.653 111.061 981.836 179.033 1077.94 154.667C1083.71 153.206 1088.43 152.136 1088.43 152.29C1088.43 154.793 1071.62 185.002 1069.8 185.766C1063.93 188.233 1020.82 188.271 1006.72 185.823C920.982 170.933 855.587 99.5399 849.714 14.4195L848.719 0H834.118H819.517L820.36 15.6592C826.407 127.901 922.562 217.153 1037.45 217.16L1061.61 217.161L1058.45 231.306L1055.28 245.448L1030.63 245.269C906.592 244.37 803.274 146.876 791.937 20.0292L790.148 0H775.87H761.591V7.28333V14.5667H747H732.409V7.28333V0H717.818H703.227V8.56083V17.1202L689.731 20.2244C682.308 21.9301 675.742 23.3227 675.14 23.3169C674.537 23.311 674.045 18.0627 674.045 11.6533V0H659.663H645.281L644.271 14.6322C643.717 22.6803 642.799 30.5143 642.233 32.0423C640.831 35.8267 607.852 52.0846 608.969 48.4415C612.695 36.271 614.528 26.2856 615.253 14.2025L616.106 0H601.52H586.933L586.033 12.0175C582.479 59.4393 549.235 103.704 504.133 121.069C421.976 152.699 334.868 98.2842 326.068 9.8325L325.091 0H310.407H295.721L296.704 11.764C305.044 111.605 398.8 179.013 495.724 154.855C507.635 151.887 507.55 151.457 498.622 169.55C489.336 188.364 492.192 187.212 455.182 187.078C354.172 186.713 276.621 114.002 267.692 11.2892L266.71 0H252.034H237.359L238.364 13.3023C247.224 130.458 339.78 217.04 456.276 217.153C469.318 217.164 479.982 217.638 479.978 218.201C479.973 218.767 479.365 221.523 478.627 224.327C477.887 227.131 476.511 233.287 475.57 238.008L473.857 246.59L448.835 245.77C321.31 241.588 216.593 141.138 210.471 17.1158L209.626 0H194.378H179.132L179.637 7.28479L180.143 14.5681H165.552H150.962L151.468 7.28479L151.973 0H136.512H121.05V8.71232C121.05 16.5594 120.725 17.4975 117.767 18.1559C115.961 18.5579 110.012 19.8806 104.545 21.0969C99.0778 22.3118 94.0104 23.3067 93.2823 23.3067C92.5265 23.3067 92.3456 18.3118 92.8606 11.6533L93.7594 0H79.0781H64.3952L63.368 11.2892C61.1707 35.4582 62.621 33.1363 43.9038 42.4589C29.1947 49.7845 27.4628 50.3439 28.0916 47.5573C32.3507 28.6934 33.5588 21.8354 34.4007 11.764L35.3841 0H20.6984H6.01411L5.03654 9.8325C-3.76323 98.2842 -90.8709 152.699 -173.028 121.069C-218.13 103.704 -251.374 59.4393 -254.928 12.0175L-255.828 0H-270.603H-285.376L-284.371 13.7393C-277.242 111.061 -181.059 179.033 -84.9543 154.667C-79.1865 153.206 -74.4678 152.136 -74.4678 152.29C-74.4678 154.793 -91.278 185.002 -93.096 185.766C-98.9659 188.233 -142.078 188.271 -156.177 185.823C-241.913 170.933 -307.308 99.5399 -313.181 14.4195L-314.176 0H-328.777H-343.378L-342.535 15.6592C-336.466 128.321 -240.48 217.11 -124.716 217.147L-101.279 217.154L-104.449 231.301L-107.618 245.448L-132.262 245.269C-256.189 244.372 -359.632 146.759 -370.958 20.0292L-372.747 0H-387.025H-401.304V7.28333ZM-226.912 8.37583C-216.31 99.8603 -106.493 134.506 -47.0077 65.1349C-33.8876 49.8355 -23.3997 23.5193 -23.3997 5.90387V0H-37.7061H-52.0124L-53.8188 10.7327C-61.9955 59.3169 -113.417 86.1269 -157.305 64.6906C-177.417 54.8668 -194.997 30.2724 -196.656 9.63731L-197.431 0H-212.657H-227.882L-226.912 8.37583ZM-168.7 6.12965C-164.342 33.3344 -137.347 49.6752 -110.748 41.2091C-95.9821 36.5084 -81.7633 18.3103 -81.7633 4.11071V0H-96.3542C-108.756 0 -110.945 0.3496 -110.945 2.33067C-110.945 15.4946 -135.558 17.3387 -138.157 4.36854L-139.033 0H-154.357H-169.682L-168.7 6.12965ZM354.505 5.90387C354.505 23.5193 364.993 49.8355 378.113 65.1349C437.598 134.506 547.415 99.8603 558.017 8.37583L558.987 0H543.762H528.536L527.761 9.63731C526.102 30.2724 508.522 54.8668 488.41 64.6906C444.522 86.1269 393.101 59.3169 384.924 10.7327L383.117 0H368.811H354.505V5.90387ZM412.868 4.11071C412.868 18.3103 427.087 36.5084 441.853 41.2091C468.452 49.6752 495.447 33.3344 499.805 6.12965L500.787 0H485.462H470.138L469.262 4.36854C466.664 17.3387 442.05 15.4946 442.05 2.33067C442.05 0.3496 439.862 0 427.459 0H412.868V4.11071ZM935.983 8.37583C946.585 99.8603 1056.4 134.506 1115.89 65.1349C1129.01 49.8355 1139.5 23.5193 1139.5 5.90387V0H1125.19H1110.88L1109.08 10.7327C1100.9 59.3169 1049.48 86.1269 1005.59 64.6906C985.478 54.8668 967.898 30.2724 966.239 9.63731L965.464 0H950.238H935.013L935.983 8.37583ZM994.195 6.12965C998.553 33.3344 1025.55 49.6752 1052.15 41.2091C1066.91 36.5084 1081.13 18.3103 1081.13 4.11071V0H1066.54C1054.14 0 1051.95 0.3496 1051.95 2.33067C1051.95 15.4946 1027.34 17.3387 1024.74 4.36854L1023.86 0H1008.54H993.213L994.195 6.12965ZM1517.4 5.90387C1517.4 23.5193 1527.89 49.8355 1541.01 65.1349C1600.49 134.506 1710.31 99.8603 1720.91 8.37583L1721.88 0H1706.66H1691.43L1690.66 9.63731C1689 30.2724 1671.42 54.8668 1651.3 64.6906C1607.42 86.1269 1556 59.3169 1547.82 10.7327L1546.01 0H1531.71H1517.4V5.90387ZM1575.76 4.11071C1575.76 18.3103 1589.98 36.5084 1604.75 41.2091C1631.35 49.6752 1658.34 33.3344 1662.7 6.12965L1663.68 0H1648.36H1633.03L1632.16 4.36854C1629.56 17.3387 1604.95 15.4946 1604.95 2.33067C1604.95 0.3496 1602.76 0 1590.35 0H1575.76V4.11071ZM185.294 54.625C186.579 60.2332 188.069 66.5347 188.606 68.6279L189.584 72.4357L160.789 73.2368C40.4005 76.5901 -51.2931 169.11 -51.7512 287.692L-51.8519 313.912L-66.0372 311.036L-80.2239 308.162L-81.2263 301.568C-82.5862 292.637 -79.4886 255.756 -76.0247 239.622C-51.4375 125.122 50.5426 42.8697 166.231 44.2317L182.959 44.4283L185.294 54.625ZM765.293 47.7058C765.755 49.9098 767.08 55.7787 768.239 60.7517C769.397 65.7233 770.345 70.3905 770.345 71.1232C770.345 71.8559 757.705 72.8188 742.258 73.263C620.579 76.7547 529.53 169.801 529.492 290.695L529.485 314.094L515.314 310.928L501.143 307.765L501.323 283.161C502.278 151.544 611.426 45.3897 747.337 43.8894L764.454 43.7L765.293 47.7058ZM1348.19 54.625C1349.47 60.2332 1350.96 66.5347 1351.5 68.6279L1352.48 72.4357L1323.68 73.2368C1203.24 76.5915 1111.74 168.921 1111.17 287.692L1111.04 313.912L1096.86 311.036L1082.67 308.162L1081.72 301.83C1079.15 284.74 1085.13 240.681 1093.51 214.858C1126.69 112.669 1222.83 43.046 1329.13 44.2404L1345.85 44.4283L1348.19 54.625ZM196.923 104.28C199.829 105.024 202.136 108.474 208.279 121.266C216.599 138.595 216.704 139.173 211.118 137.053C194.988 130.931 156.001 128.982 135.25 133.262C57.8483 149.222 6.74657 211.454 6.64298 289.877C6.61088 314.582 7.11573 318.706 12.4866 337.587C13.3387 340.58 11.9672 340.168 -3.16648 332.885C-22.3987 323.626 -21.2854 325.568 -22.819 298.617C-28.133 205.272 41.6699 119.403 135.275 104.134C147.966 102.064 188.641 102.16 196.923 104.28ZM778.665 104.401C782.843 105.987 799.521 139.027 795.522 137.796C675.306 100.796 561.159 208.854 592.075 330.391C593.539 336.149 594.611 340.86 594.456 340.86C591.95 340.86 561.69 324.078 560.925 322.263C558.453 316.403 558.415 273.362 560.868 259.287C575.04 177.954 639.869 115.018 721.466 103.38C731.844 101.898 774.059 102.653 778.665 104.401ZM1359.82 104.28C1362.72 105.024 1365.03 108.474 1371.17 121.266C1379.49 138.595 1379.6 139.173 1374.01 137.053C1357.88 130.931 1318.9 128.982 1298.15 133.262C1220.71 149.23 1169.64 211.421 1169.54 289.877C1169.51 314.582 1170.01 318.706 1175.38 337.587C1176.23 340.58 1174.86 340.168 1159.73 332.885C1140.5 323.626 1141.61 325.568 1140.08 298.617C1134.77 205.489 1204.78 119.367 1298.17 104.134C1310.86 102.064 1351.54 102.16 1359.82 104.28ZM190.627 162.346C275.009 180.271 319.831 269.533 283.036 346.376C231.337 454.343 73.5131 440.637 40.027 325.271C13.4117 233.581 97.5355 142.571 190.627 162.346ZM781.681 164.551C926.337 207.518 897.491 419.969 747 419.969C587.927 419.969 569.894 191.495 726.573 161.163C736.211 159.297 771.243 161.451 781.681 164.551ZM1350.43 161.764C1436.64 177.01 1484.14 270.851 1444.97 348.563C1396.89 443.947 1260 443.947 1211.93 348.563C1164.27 254.015 1246.32 143.355 1350.43 161.764ZM-415.895 202.901V218.101L-406.242 218.874C-385.572 220.531 -360.937 238.082 -351.097 258.161C-329.625 301.976 -356.479 353.312 -405.144 361.475L-415.895 363.278V377.561V391.843H-410.727C-375.032 391.843 -336.019 364.461 -321.743 329.389C-295.629 265.227 -337.349 196.772 -407.505 188.669L-415.895 187.7V202.901ZM150.797 189.275C52.8378 204.797 31.7233 337.416 120.265 381.041C207.325 423.934 299.328 332.544 256.766 245.448C237.71 206.452 192.762 182.625 150.797 189.275ZM732.053 189.402C655.741 201.374 619.187 291.39 666.048 351.942C725.68 428.999 848.239 387.264 848.312 289.877C848.357 227.963 792.726 179.882 732.053 189.402ZM1313.69 189.275C1215.73 204.797 1194.62 337.416 1283.16 381.041C1370.22 423.934 1462.22 332.544 1419.66 245.448C1400.61 206.452 1355.66 182.625 1313.69 189.275ZM1894.95 189.49C1827.77 199.314 1788.76 272.882 1818.07 334.462C1833.4 366.671 1871.41 391.843 1904.73 391.843H1909.89V377.561V363.278L1899.14 361.475C1850.48 353.312 1823.62 301.976 1845.1 258.161C1854.94 238.082 1879.57 220.531 1900.24 218.874L1909.89 218.101V203.005C1909.89 185.815 1911.31 187.097 1894.95 189.49ZM187.202 221.447C239.451 237.558 254.995 304.901 215.07 342.186C166.424 387.616 89.4537 351.207 93.7127 284.778C96.6397 239.107 142.884 207.78 187.202 221.447ZM777.933 225.399C841.996 257.091 828.168 349.571 757.578 361.513C710.075 369.551 666.381 324.598 675.988 277.571C685.676 230.14 735.731 204.523 777.933 225.399ZM1350.1 221.447C1402.35 237.558 1417.89 304.901 1377.96 342.186C1329.32 387.616 1252.35 351.207 1256.61 284.778C1259.53 239.107 1305.78 207.78 1350.1 221.447ZM353.082 270.161C367.571 385.186 264.846 489.68 148.96 477.8C139.629 476.843 131.751 475.825 131.455 475.536C130.314 474.425 115.399 443.613 115.806 443.207C116.043 442.971 122.079 444.238 129.221 446.024C202.527 464.347 286.632 420.774 313.821 350.387C325.567 319.979 328.511 281.546 321.283 252.981C319.492 245.907 318.027 239.996 318.027 239.843C318.027 239.692 325.504 243.185 334.641 247.606L351.252 255.645L353.082 270.161ZM1515.98 270.161C1530.46 385.166 1427.72 489.679 1311.85 477.8C1302.52 476.843 1294.65 475.825 1294.35 475.536C1293.21 474.425 1278.29 443.613 1278.7 443.207C1278.94 442.971 1284.97 444.238 1292.12 446.024C1312.01 450.996 1347.55 450.624 1367.84 445.235C1456.91 421.577 1506.61 332.952 1481.56 242.461C1480.85 239.887 1483.04 240.592 1497.44 247.559L1514.15 255.645L1515.98 270.161ZM917.573 248.317C935.558 257.091 934.524 254.448 934.39 291.333C934.055 383.558 871.676 458.302 780.559 475.661C765.58 478.515 731.31 479.156 719.277 476.806L712.711 475.524L704.338 458.812C699.733 449.619 695.958 441.963 695.948 441.798C695.939 441.634 698.395 442.358 701.403 443.405C726.825 452.262 766.887 451.61 797.339 441.846C872.412 417.773 921.243 334.242 904.061 259.287C899.787 240.646 899.681 239.929 901.249 240.519C902.068 240.826 909.414 244.335 917.573 248.317ZM-415.895 261.103V276.403L-411.519 277.277C-398.527 279.871 -400.375 304.443 -413.56 304.443C-415.545 304.443 -415.895 306.628 -415.895 319.01V333.577H-411.777C-397.554 333.577 -379.326 319.381 -374.617 304.64C-366.137 278.085 -382.505 251.135 -409.755 246.784L-415.895 245.804V261.103ZM153.88 248.127C105.148 264.244 114.605 332.879 165.552 332.838C221.722 332.793 223.969 250.606 167.906 246.759C163.402 246.449 157.09 247.065 153.88 248.127ZM732.875 248.79C702.137 259.757 693.387 297.619 716.285 320.574C749.44 353.813 804.237 318.628 787.766 274.679C779.689 253.131 754.288 241.15 732.875 248.79ZM1316.77 248.127C1268.04 264.244 1277.5 332.879 1328.45 332.838C1384.62 332.793 1386.86 250.606 1330.8 246.759C1326.3 246.449 1319.98 247.065 1316.77 248.127ZM1895.77 248.88C1852.46 263.823 1860.7 333.577 1905.78 333.577H1909.89V319.01C1909.89 307.102 1909.5 304.443 1907.73 304.443C1894.59 304.443 1892.59 279.859 1905.52 277.277L1909.89 276.403V261.29C1909.89 243.903 1909.98 243.977 1895.77 248.88ZM400.031 270.22L411.269 272.657L412.25 279.185C412.79 282.774 412.762 293.041 412.19 301.996C403.872 432.261 302.345 531.921 174.176 535.634L147.782 536.399L145.254 523.688C143.863 516.697 142.438 510.228 142.086 509.313C141.622 508.107 148.179 507.634 165.901 507.594C289.441 507.319 386.867 407.341 383.455 284.346C382.975 267.057 383.059 266.456 385.875 267.108C387.48 267.479 393.851 268.879 400.031 270.22ZM974.408 268.611C978.937 269.734 985.106 271.074 988.115 271.591L993.586 272.529V289.617C993.586 423.785 888.978 531.88 755.463 535.678L729.637 536.412L728.859 532.955C724.988 515.737 723.655 509.506 723.655 508.651C723.655 508.1 734.325 507.613 747.365 507.571C869.248 507.173 964.396 411.945 964.514 290.241C964.526 277.223 964.905 266.57 965.354 266.57C965.804 266.57 969.878 267.489 974.408 268.611ZM1562.93 270.22L1574.16 272.657L1575.14 279.185C1575.68 282.774 1575.66 293.041 1575.08 301.996C1566.77 432.261 1465.24 531.921 1337.07 535.634L1310.68 536.399L1308.15 523.688C1306.76 516.697 1305.33 510.228 1304.98 509.313C1304.52 508.107 1311.07 507.634 1328.8 507.594C1452.34 507.319 1549.76 407.341 1546.35 284.346C1545.87 267.057 1545.95 266.456 1548.77 267.108C1550.38 267.479 1556.75 268.879 1562.93 270.22ZM-110.945 289.877V304.443H-125.536H-140.127V289.877V275.31H-125.536H-110.945V289.877ZM471.232 289.877V304.443H456.641H442.05V289.877V275.31H456.641H471.232V289.877ZM1051.95 289.877V304.443H1037.36H1022.77V289.877V275.31H1037.36H1051.95V289.877ZM1634.13 289.877V304.443H1619.54H1604.95V289.877V275.31H1619.54H1634.13V289.877ZM175.493 280.853C184.259 289.987 178.292 303.715 165.552 303.715C159.891 303.715 158.136 303.022 155.212 299.628C147.223 290.356 153.369 276.767 165.552 276.767C170.243 276.767 172.438 277.668 175.493 280.853ZM754.376 278.267C766.072 284.516 760.457 304.443 747 304.443C741.454 304.443 732.409 296.362 732.409 291.406C732.409 280.44 744.693 273.093 754.376 278.267ZM1338.39 280.853C1347.15 289.987 1341.19 303.715 1328.45 303.715C1322.79 303.715 1321.03 303.022 1318.11 299.628C1310.12 290.356 1316.26 276.767 1328.45 276.767C1333.14 276.767 1335.33 277.668 1338.39 280.853ZM-81.7443 338.014C33.1853 358.674 117.254 455.781 120.629 571.771L121.392 598.021L108.569 600.681C101.517 602.145 95.0391 603.614 94.1724 603.946C93.0853 604.361 92.5805 596.984 92.544 580.134C92.2683 456.774 -7.85159 359.533 -131.076 362.942C-148.394 363.421 -148.995 363.336 -148.343 360.525C-147.971 358.923 -146.57 352.57 -145.229 346.407C-143.213 337.146 -142.243 335.078 -139.635 334.486C-133.176 333.019 -97.4033 335.199 -81.7443 338.014ZM477.798 335.092C607.676 347.336 708.131 459.411 702.972 586.308L702.498 597.962L691.555 600.279C685.536 601.554 679.133 603.073 677.328 603.654L674.045 604.713V583.599C674.045 459.788 580.503 364.152 458.83 363.565L432.566 363.438L435.442 349.296C437.845 337.478 438.805 335.055 441.278 334.563C447.157 333.393 462.064 333.609 477.798 335.092ZM1081.15 338.014C1195.98 358.656 1280.61 456.371 1283.61 571.771L1284.29 598.021L1271.46 600.681C1264.41 602.145 1257.93 603.614 1257.07 603.946C1255.98 604.361 1255.48 596.984 1255.44 580.134C1255.16 456.774 1155.04 359.533 1031.82 362.942C1014.5 363.421 1013.9 363.336 1014.55 360.525C1014.92 358.923 1016.32 352.57 1017.67 346.407C1019.68 337.146 1020.65 335.078 1023.26 334.486C1029.72 333.019 1065.49 335.199 1081.15 338.014ZM1640.69 335.092C1770.13 347.296 1870 458.085 1865.82 584.85L1865.39 597.96L1854.45 600.278C1848.43 601.554 1842.12 603.044 1840.42 603.592C1837.38 604.575 1837.33 604.276 1836.54 575.782C1833.18 455.536 1740.53 363.996 1621.72 363.539L1595.46 363.438L1598.34 349.296C1600.74 337.478 1601.7 335.055 1604.17 334.563C1610.05 333.393 1624.96 333.609 1640.69 335.092ZM-89.0952 395.475C5.26563 414.285 72.3371 503.351 62.6998 597.047C61.7412 606.362 60.7212 614.227 60.4323 614.523C59.319 615.662 28.4564 630.552 28.0493 630.145C27.8129 629.909 29.0823 623.883 30.8712 616.753C35.8511 596.895 35.479 561.414 30.0804 541.152C6.3687 452.174 -82.325 402.62 -173.088 427.638C-175.837 428.395 -163.728 400.435 -159.353 395.923C-155.287 391.728 -109.36 391.435 -89.0952 395.475ZM482.442 394.101C579.324 408.462 648.185 490.831 644.344 587.765C643.244 615.512 644.319 613.5 625.55 622.898C606.727 632.322 607.823 632.566 611.58 619.791C618.292 596.962 616.775 556.107 608.248 530.138C582.66 452.197 496.467 404.643 418.099 425.23C411.746 426.898 406.391 428.1 406.197 427.897C405.509 427.184 421.681 395.478 422.952 395.049C432.658 391.772 463.426 391.283 482.442 394.101ZM1073.8 395.475C1168.13 414.277 1235.23 503.382 1225.59 597.047C1224.64 606.362 1223.62 614.227 1223.33 614.523C1222.21 615.662 1191.35 630.552 1190.94 630.145C1190.71 629.909 1191.98 623.883 1193.77 616.753C1212.13 543.536 1168.51 459.616 1097.97 432.46C1067.51 420.733 1029.01 417.794 1000.4 425.01C993.316 426.798 987.395 428.26 987.242 428.26C987.09 428.26 990.589 420.789 995.018 411.655L1003.07 395.052L1013.28 393.539C1026.37 391.599 1059.71 392.666 1073.8 395.475ZM1645.34 394.101C1742.22 408.462 1811.08 490.831 1807.24 587.765C1806.14 615.512 1807.21 613.5 1788.44 622.898C1769.62 632.322 1770.72 632.566 1774.48 619.791C1781.19 596.962 1779.67 556.107 1771.14 530.138C1745.55 452.197 1659.36 404.643 1580.99 425.23C1574.64 426.898 1569.29 428.1 1569.09 427.897C1568.4 427.184 1584.58 395.478 1585.85 395.049C1595.55 391.772 1626.32 391.283 1645.34 394.101ZM-90.0976 455.134C5.7763 483.058 37.2722 601.388 -32.4067 671.867C-99.8035 740.039 -216.954 713.794 -248.365 623.485C-282.727 524.699 -189.98 426.043 -90.0976 455.134ZM479.232 452.331C572.963 468.649 617.789 578.528 562.413 656.228C503.513 738.874 374.862 724.089 335.7 630.174C296.37 535.858 378.005 434.709 479.232 452.331ZM1072.8 455.134C1168.67 483.058 1200.17 601.388 1130.49 671.867C1058.92 744.255 936.342 710.37 911.154 611.236C886.922 515.879 978.318 427.616 1072.8 455.134ZM1642.13 452.331C1746.86 470.565 1786.19 601.835 1708.76 674.753C1625.4 753.264 1489.25 694.795 1489.25 580.482C1489.25 498.822 1561.46 438.288 1642.13 452.331ZM-149.601 481.506C-213.659 497.631 -245.79 569.359 -215.146 627.823C-176.897 700.795 -70.7282 699.547 -34.2203 625.694C3.87949 548.619 -66.5537 460.599 -149.601 481.506ZM434.978 480.808C371.045 493.36 335.973 566.314 365.325 625.694C401.833 699.547 508.002 700.795 546.251 627.823C586.124 551.755 519.818 464.151 434.978 480.808ZM1013.29 481.506C949.236 497.631 917.105 569.359 947.749 627.823C985.957 700.718 1092.21 699.467 1128.67 625.694C1166.77 548.632 1096.33 460.604 1013.29 481.506ZM1596.19 481.312C1521.31 498.327 1491.84 592.135 1543.64 648.569C1606.53 717.084 1720.81 673.164 1720.81 580.482C1720.81 515.393 1659.81 466.853 1596.19 481.312ZM-107.359 510.607C-53.5255 524.605 -34.9965 589.21 -73.14 629.917C-117.53 677.29 -197.031 645.567 -197.031 580.482C-197.031 533.128 -152.923 498.758 -107.359 510.607ZM483.071 513.357C525.475 530.54 541.563 582.926 516.065 620.796C481.224 672.544 400.24 657.676 385.887 596.897C372.653 540.863 429.775 491.762 483.071 513.357ZM1055.54 510.607C1109.37 524.605 1127.9 589.21 1089.75 629.917C1045.37 677.29 965.864 645.567 965.864 580.482C965.864 533.128 1009.97 498.758 1055.54 510.607ZM1645.97 513.357C1705.84 537.618 1705.84 623.5 1645.97 647.576C1605.69 663.772 1558.8 639.321 1548.78 596.897C1535.55 540.863 1592.67 491.762 1645.97 513.357ZM-278.133 533.504C-294.998 586.183 -280.548 648.641 -241.976 689.807C-211.116 722.741 -172.577 739.065 -125.536 739.127C-100.79 739.159 -96.6591 738.655 -77.7464 733.293C-74.748 732.443 -75.1609 733.812 -82.4563 748.92C-91.7303 768.121 -89.7854 767.009 -116.781 768.54C-225.478 774.708 -317.789 682.9 -313.193 573.198C-311.993 544.57 -313.147 546.805 -294.989 537.978C-277.007 529.238 -276.746 529.168 -278.133 533.504ZM303.437 530.84C303.437 531.178 301.985 537.241 300.21 544.314C271.551 658.54 384.749 767.475 498.126 734.779C502.083 733.637 505.706 732.703 506.177 732.703C506.648 732.703 503.411 740.167 498.982 749.289L490.93 765.873L476.39 767.7C361.215 782.159 256.509 679.569 268.405 563.916C269.364 554.601 270.397 546.723 270.702 546.412C272.901 544.163 303.437 529.637 303.437 530.84ZM884.761 533.504C867.897 586.183 882.347 648.641 920.919 689.807C951.779 722.741 990.318 739.065 1037.36 739.127C1062.11 739.159 1066.24 738.655 1085.15 733.293C1088.15 732.443 1087.73 733.812 1080.44 748.92C1071.16 768.121 1073.11 767.009 1046.11 768.54C937.417 774.708 845.106 682.9 849.702 573.198C850.902 544.57 849.748 546.805 867.906 537.978C885.888 529.238 886.149 529.168 884.761 533.504ZM1466.33 530.84C1466.33 531.178 1464.88 537.241 1463.11 544.314C1444.77 617.382 1488.47 701.379 1558.93 728.504C1589.38 740.23 1627.88 743.169 1656.49 735.953C1663.58 734.166 1669.5 732.703 1669.65 732.703C1669.8 732.703 1666.31 740.167 1661.88 749.289L1653.82 765.873L1639.28 767.7C1524.11 782.159 1419.4 679.569 1431.3 563.916C1432.26 554.601 1433.29 546.723 1433.6 546.412C1435.8 544.163 1466.33 529.637 1466.33 530.84ZM-132.133 537.631C-159.525 541.131 -176.746 572.565 -165.185 597.962C-145.543 641.108 -82.541 627.788 -82.503 580.482C-82.4812 552.065 -103.444 533.966 -132.133 537.631ZM449.14 537.615C407.926 544.094 399.188 600.383 436.506 618.999C453.768 627.611 474.743 624.276 487.575 610.882C516.576 580.607 490.603 531.098 449.14 537.615ZM1030.76 537.631C978.45 544.316 984.648 623.372 1037.49 623.439C1063.64 623.472 1080.37 606.716 1080.39 580.482C1080.41 552.065 1059.45 533.966 1030.76 537.631ZM1612.03 537.615C1570.82 544.094 1562.08 600.383 1599.4 618.999C1616.66 627.611 1637.64 624.276 1650.47 610.882C1679.47 580.607 1653.5 531.098 1612.03 537.615ZM-342.536 585.216C-339.172 705.666 -246.33 797.082 -126.995 797.446L-101.461 797.525L-104.341 811.687L-107.22 825.85L-113.563 826.798C-130.681 829.362 -174.814 823.4 -200.679 815.03C-304.167 781.544 -376.186 680.44 -371.867 574.71L-371.393 563.112L-358.261 559.947C-351.038 558.206 -344.726 556.706 -344.235 556.614C-343.743 556.522 -342.978 569.392 -342.536 585.216ZM238.561 580.846C238.838 704.208 339.272 801.675 462.374 798.046C479.502 797.542 480.096 797.626 479.447 800.438C479.076 802.041 477.674 808.401 476.33 814.571L473.889 825.79L467.351 826.769C449.465 829.446 406.209 823.334 379.038 814.288C280.225 781.394 213.058 691.711 210.393 589.114L209.71 562.786L223.379 559.807C230.896 558.17 237.376 556.744 237.777 556.639C238.179 556.534 238.532 567.427 238.561 580.846ZM820.359 585.216C823.719 705.526 916.208 796.826 1035.3 797.398L1061.7 797.525L1059.89 804.406C1058.89 808.191 1057.62 814.549 1057.07 818.537L1056.07 825.79L1049.27 826.822C1032.03 829.435 987.111 823.151 960.027 814.335C858.644 781.339 786.751 679.401 791.028 574.71L791.502 563.112L804.634 559.947C811.857 558.206 818.169 556.706 818.66 556.614C819.152 556.522 819.917 569.392 820.359 585.216ZM1401.46 580.846C1401.73 704.208 1502.17 801.675 1625.27 798.046C1642.4 797.542 1642.99 797.626 1642.34 800.438C1641.97 802.041 1640.57 808.401 1639.22 814.571L1636.78 825.79L1630.25 826.769C1626.65 827.308 1616.37 827.28 1607.4 826.709C1476.92 818.405 1377.09 717.047 1373.37 589.114L1372.61 562.786L1386.27 559.807C1393.79 558.17 1400.27 556.744 1400.67 556.639C1401.07 556.534 1401.43 567.427 1401.46 580.846ZM761.591 580.482V595.048H747H732.409V580.482V565.915H747H761.591V580.482ZM-115.769 570.158C-112.369 573.077 -111.675 574.83 -111.675 580.482C-111.675 593.446 -125.985 599.364 -134.893 590.083C-147.224 577.233 -129.289 558.549 -115.769 570.158ZM179.414 580.482V594.32H165.552H151.691V580.482V566.643H165.552H179.414V580.482ZM465.68 570.557C474.534 579.025 468.592 594.32 456.45 594.32C447.932 594.32 442.78 589.105 442.78 580.482C442.78 567.764 456.53 561.806 465.68 570.557ZM1047.13 570.158C1050.53 573.077 1051.22 574.83 1051.22 580.482C1051.22 593.446 1036.91 599.364 1028 590.083C1015.67 577.233 1033.61 558.549 1047.13 570.158ZM1342.31 580.482V594.32H1328.45H1314.59V580.482V566.643H1328.45H1342.31V580.482ZM1628.57 570.557C1637.43 579.025 1631.49 594.32 1619.34 594.32C1610.83 594.32 1605.67 589.105 1605.67 580.482C1605.67 567.764 1619.42 561.806 1628.57 570.557ZM185.91 637.564C187.268 644.396 188.667 650.735 189.019 651.65C189.483 652.856 182.926 653.33 165.204 653.369C41.613 653.646 -55.7637 753.572 -52.3495 876.618C-51.8694 893.907 -51.9541 894.507 -54.7701 893.856C-56.3751 893.484 -62.7455 892.085 -68.9262 890.743L-80.1641 888.306L-81.1446 881.779C-84.8814 856.903 -74.8195 804.475 -59.7441 770.277C-19.9577 680.013 77.3286 619.507 174.387 624.662L183.438 625.143L185.91 637.564ZM764.279 625.704C764.849 626.212 770.252 649.649 770.308 651.858C770.331 652.769 761.444 653.344 746.635 653.392C624.752 653.79 529.604 749.018 529.486 870.723C529.474 883.742 529.095 894.393 528.646 894.393C528.196 894.393 524.122 893.474 519.592 892.353C515.063 891.229 508.801 889.872 505.677 889.334L499.996 888.357L500.821 863.334C504.62 747.797 584.85 652.601 698.12 629.226C717.796 625.166 761.089 622.861 764.279 625.704ZM1348.8 637.564C1350.16 644.396 1351.56 650.735 1351.91 651.65C1352.38 652.856 1345.82 653.33 1328.1 653.369C1204.51 653.646 1107.13 753.572 1110.55 876.618C1111.03 893.907 1110.94 894.507 1108.12 893.856C1106.52 893.484 1100.15 892.085 1093.97 890.743L1082.73 888.306L1081.75 881.779C1078.01 856.903 1088.08 804.475 1103.15 770.277C1142.92 680.045 1240.34 619.472 1337.35 624.662L1346.33 625.143L1348.8 637.564ZM185.163 683.378L199.77 685.037L207.744 701.187C217.21 720.362 217.824 718.925 201.884 714.939C128.546 696.609 44.4859 740.157 17.2841 810.577C5.53844 840.985 2.59402 879.417 9.82236 907.983C11.6127 915.056 13.0776 920.994 13.0776 921.176C13.0776 921.359 5.70919 917.811 -3.29632 913.292C-22.9357 903.438 -22.3608 904.677 -22.5199 871.815C-23.0641 759.21 74.3754 670.801 185.163 683.378ZM775.449 684.396C781.191 685.394 781.416 685.673 789.527 701.915C796.867 716.613 797.428 718.342 794.636 717.714C792.913 717.327 786.578 715.844 780.559 714.421C667.554 687.695 563.306 795.816 591.887 910.105C594.858 921.984 595.312 921.895 577.194 912.985C558.34 903.713 559.476 906.514 559.61 869.63C560.029 754.256 663.998 665.031 775.449 684.396ZM1348.06 683.378L1362.66 685.037L1370.64 701.187C1380.11 720.362 1380.72 718.925 1364.78 714.939C1291.44 696.609 1207.38 740.157 1180.18 810.577C1168.43 840.985 1165.49 879.417 1172.72 907.983C1174.51 915.056 1175.97 920.994 1175.97 921.176C1175.97 921.359 1168.6 917.811 1159.6 913.292C1139.96 903.438 1140.53 904.677 1140.38 871.815C1139.83 759.21 1237.27 670.801 1348.06 683.378ZM193.748 743.572C291.462 764.122 329.276 886.057 260.676 959.391C177.872 1047.91 28.7818 984.619 35.4673 863.789C39.0392 799.25 84.8969 751.059 152.421 740.887C159.945 739.754 182.587 741.223 193.748 743.572ZM764.039 741.551C844.229 752.545 896.533 835.215 871.078 910.736C830.679 1030.6 663.555 1030.38 622.831 910.417C592.763 821.838 670.609 728.743 764.039 741.551ZM1356.64 743.572C1454.46 764.143 1492.35 887.05 1423.29 959.757C1339.82 1047.64 1191.69 984.44 1198.36 863.789C1201.93 799.25 1247.79 751.059 1315.32 740.887C1322.84 739.754 1345.48 741.223 1356.64 743.572ZM-415.895 783.403V797.685L-405.144 799.489C-356.479 807.652 -329.625 858.988 -351.097 902.803C-360.937 922.881 -385.572 940.433 -406.242 942.089L-415.895 942.862V958.063V973.263L-407.505 972.294C-325.128 962.779 -285.856 871.706 -336.351 807.279C-353.484 785.419 -384.933 769.12 -409.981 769.12H-415.895V783.403ZM142.937 771.379C79.9039 784.856 45.6561 856.819 74.3389 915.515C111.258 991.065 219.834 991.065 256.769 915.515C294.151 839.05 226.583 753.496 142.937 771.379ZM722.878 771.854C646.091 790.715 619.038 886.214 674.753 941.735C739.586 1006.34 848.379 962.056 848.312 871.087C848.262 804.344 787.218 756.051 722.878 771.854ZM1305.83 771.379C1242.8 784.856 1208.55 856.819 1237.23 915.515C1274.15 991.064 1382.74 991.064 1419.66 915.515C1457.08 838.94 1389.58 753.473 1305.83 771.379ZM1885.77 771.854C1774.44 799.2 1786.99 959.068 1901.51 972.294L1909.89 973.263V958.063V942.862L1900.24 942.089C1879.57 940.433 1854.94 922.881 1845.1 902.803C1823.59 858.916 1851.03 806.833 1899.6 799.325L1909.89 797.736V783.427V769.12L1902.96 769.228C1899.15 769.286 1891.42 770.469 1885.77 771.854ZM181.995 800.45C233.3 812.526 254.879 874.699 221.99 915.681C193.242 951.506 137.863 951.506 109.115 915.681C66.6773 862.801 115.946 784.903 181.995 800.45ZM760.298 799.732C828.566 812.577 840.51 904.607 777.927 935.567L765.459 941.735H747H728.541L716.073 935.567C641.016 898.437 678.182 784.281 760.298 799.732ZM1344.89 800.45C1396.19 812.526 1417.77 874.699 1384.89 915.681C1356.14 951.506 1300.76 951.506 1272.01 915.681C1229.57 862.801 1278.84 784.903 1344.89 800.45ZM335.715 828.571C353.599 837.343 352.421 835.12 353.982 863.075C360.006 970.94 267.768 1063 158.257 1058.43C129.497 1057.23 131.84 1058.47 122.826 1039.7C113.752 1020.8 113.457 1022.01 126.178 1025.87C140.357 1030.17 188.107 1030.53 202.676 1026.44C278.972 1005.07 324.361 947.167 324.462 871.087C324.494 846.318 324.014 842.414 318.569 823.186C318.026 821.272 318.175 819.996 318.9 820.342C319.624 820.687 327.191 824.39 335.715 828.571ZM915.917 828.14C935.104 837.72 933.969 835.537 934.842 864.532C937.595 955.996 879.574 1031.7 789.401 1054.31C773.074 1058.4 723.192 1060.01 715.335 1056.7C711.128 1054.92 694.556 1021.96 698.478 1023.17C722.811 1030.66 763.959 1031.87 786.363 1025.76C873.27 1002.06 923.826 916.669 901.925 830.572C900.461 824.814 899.389 820.103 899.544 820.103C899.698 820.103 907.067 823.72 915.917 828.14ZM1498.61 828.571C1516.49 837.343 1515.32 835.12 1516.88 863.075C1522.9 970.94 1430.66 1063 1321.15 1058.43C1292.39 1057.23 1294.74 1058.47 1285.72 1039.7C1276.65 1020.8 1276.35 1022.01 1289.07 1025.87C1303.25 1030.17 1351 1030.53 1365.57 1026.44C1441.87 1005.07 1487.26 947.167 1487.36 871.087C1487.39 846.318 1486.91 842.414 1481.46 823.186C1480.92 821.272 1481.07 819.996 1481.79 820.342C1482.52 820.687 1490.09 824.39 1498.61 828.571ZM-415.895 841.953C-415.895 854.335 -415.545 856.52 -413.56 856.52C-400.375 856.52 -398.527 881.093 -411.519 883.687L-415.895 884.561V899.86V915.16L-409.755 914.179C-382.505 909.828 -366.137 882.878 -374.617 856.323C-379.326 841.582 -397.554 827.387 -411.777 827.387H-415.895V841.953ZM151.258 829.4C105.323 846.484 116.731 913.98 165.552 913.98C221.44 913.98 223.726 830.348 167.907 827.84C160.754 827.518 154.825 828.073 151.258 829.4ZM730.957 829.927C721.367 833.305 708.913 846.332 705.722 856.323C691.648 900.398 745.135 934.128 777.641 901.677C810.796 868.577 775.452 814.253 730.957 829.927ZM1314.15 829.4C1268.22 846.484 1279.63 913.98 1328.45 913.98C1384.33 913.98 1386.62 830.348 1330.8 827.84C1323.65 827.518 1317.72 828.073 1314.15 829.4ZM1893.85 829.927C1852.84 844.373 1860.23 907.231 1903.76 914.179L1909.89 915.16V899.86V884.561L1905.52 883.687C1892.53 881.093 1894.37 856.52 1907.56 856.52C1909.54 856.52 1909.89 854.335 1909.89 841.953V827.387L1905.15 827.502C1902.55 827.564 1897.46 828.657 1893.85 829.927ZM412.331 859.395C413.691 868.326 410.594 905.208 407.13 921.342C382.378 1036.61 275.632 1121.3 160.52 1117L148.194 1116.54L144.902 1102.7C143.091 1095.09 141.58 1088.53 141.542 1088.13C141.504 1087.73 150.502 1087.6 161.537 1087.85C283.807 1090.59 382.505 994.587 382.878 872.543L382.957 847.052L397.142 849.927L411.329 852.801L412.331 859.395ZM992.677 877.802C991.72 1009.56 880.562 1117.14 745.262 1117.25C728.061 1117.27 729.848 1119.33 724.352 1093.05L723.402 1088.51L751.615 1087.7C873.423 1084.2 964.454 991.214 964.48 870.264L964.486 846.864L978.671 850.032L992.857 853.199L992.677 877.802ZM1575.23 859.395C1576.59 868.326 1573.49 905.208 1570.02 921.342C1545.27 1036.61 1438.53 1121.3 1323.42 1117L1311.09 1116.54L1307.8 1102.7C1305.99 1095.09 1304.47 1088.53 1304.44 1088.13C1304.4 1087.73 1313.4 1087.6 1324.43 1087.85C1448.42 1090.63 1549.6 989.566 1546.36 866.186L1545.85 847.052L1560.04 849.927L1574.22 852.801L1575.23 859.395ZM-110.945 870.992V885.464H-125.536H-140.127V870.992V856.52H-125.536H-110.945V870.992ZM176.131 861.65C183.905 870.583 177.518 884.197 165.552 884.197C154.301 884.197 147.639 871.682 154.036 862.567C159 855.492 170.36 855.02 176.131 861.65ZM471.232 871.018V885.515L456.641 885.464L442.05 885.412V870.966V856.52H456.641H471.232V871.018ZM756.63 861.473C768.24 873.063 754.256 890.514 739.624 882.696C727.928 876.447 733.543 856.52 747 856.52C750.365 856.52 753.055 857.904 756.63 861.473ZM1051.95 870.992V885.464H1037.36H1022.77V870.992V856.52H1037.36H1051.95V870.992ZM1339.03 861.65C1346.8 870.583 1340.41 884.197 1328.45 884.197C1317.2 884.197 1310.53 871.682 1316.93 862.567C1321.89 855.492 1333.26 855.02 1339.03 861.65ZM1634.13 871.018V885.515L1619.54 885.464L1604.95 885.412V870.966V856.52H1619.54H1634.13V871.018ZM-76.6565 919.186C36.7995 942.918 117.413 1038.24 120.674 1152.51L121.409 1178.3L117.947 1179.1C101.722 1182.85 95.3061 1184.23 94.0571 1184.25C93.1466 1184.26 92.5688 1175.37 92.5206 1160.6C92.1223 1038.95 -3.20586 943.994 -125.171 943.748C-138.211 943.722 -148.881 943.353 -148.881 942.928C-148.881 942.503 -147.961 938.456 -146.837 933.933C-145.712 929.412 -144.351 923.157 -143.813 920.034L-142.832 914.355L-117.04 915.244C-99.5365 915.847 -86.5578 917.114 -76.6565 919.186ZM504.061 919.163C621.801 943.913 703.118 1043.61 703.216 1163.33L703.227 1178.08L689.731 1181.19C682.308 1182.89 675.827 1184.29 675.328 1184.28C674.831 1184.27 674.06 1171.65 673.615 1156.23C670.113 1034.61 577.104 943.872 455.828 943.757L432.401 943.735L435.661 929.624C437.454 921.865 438.969 915.256 439.027 914.94C439.368 913.075 491.076 916.433 504.061 919.163ZM1086.24 919.186C1199.69 942.918 1280.31 1038.24 1283.57 1152.51L1284.3 1178.3L1280.84 1179.1C1264.62 1182.85 1258.2 1184.23 1256.95 1184.25C1256.04 1184.26 1255.46 1175.37 1255.42 1160.6C1255.02 1038.95 1159.69 943.994 1037.72 943.748C1024.68 943.722 1014.01 943.353 1014.01 942.928C1014.01 942.503 1014.93 938.456 1016.06 933.933C1017.18 929.412 1018.54 923.157 1019.08 920.034L1020.06 914.355L1045.86 915.244C1063.36 915.847 1076.34 917.114 1086.24 919.186ZM1666.96 919.163C1784.7 943.913 1866.01 1043.61 1866.11 1163.33L1866.12 1178.08L1852.63 1181.19C1845.2 1182.89 1838.72 1184.29 1838.22 1184.28C1837.73 1184.27 1836.95 1171.65 1836.51 1156.23C1833.01 1034.61 1740 943.872 1618.72 943.757L1595.3 943.735L1598.56 929.624C1600.35 921.865 1601.86 915.256 1601.92 914.94C1602.26 913.075 1653.97 916.433 1666.96 919.163ZM-78.1155 978.692C14.0946 1002.6 79.0416 1100.13 61.7047 1188.64L60.4207 1195.2L43.9038 1203.42C29.1947 1210.75 27.4628 1211.31 28.0916 1208.52C28.4797 1206.8 29.9651 1200.48 31.3906 1194.47C58.1605 1081.65 -50.1404 977.575 -164.619 1006.11C-169.663 1007.37 -174.115 1008.07 -174.512 1007.68C-175.114 1007.07 -161.427 977.993 -159.631 976.061C-155.064 971.15 -100.393 972.915 -78.1155 978.692ZM488.185 975.305C562.946 988.294 621.2 1043.18 640.13 1118.48C644.267 1134.93 645.898 1184.69 642.56 1192.58C640.784 1196.78 607.765 1213.32 608.974 1209.4C616.477 1185.11 617.694 1144.03 611.573 1121.67C587.825 1034.88 502.325 984.424 416.059 1006.3C410.292 1007.76 405.573 1008.83 405.573 1008.67C405.573 1008.52 409.228 1001.1 413.694 992.184C421.985 975.636 422.059 975.562 431.837 974.024C441.783 972.459 476.33 973.246 488.185 975.305ZM1084.78 978.692C1173.65 1001.74 1235 1088.24 1225.68 1177.35C1223.66 1196.63 1225.42 1194.26 1205.91 1203.89C1191.96 1210.78 1190.36 1211.27 1190.99 1208.5C1191.38 1206.79 1192.86 1200.48 1194.29 1194.47C1221.06 1081.65 1112.75 977.575 998.276 1006.11C993.232 1007.37 988.78 1008.07 988.383 1007.68C987.781 1007.07 1001.47 977.993 1003.26 976.061C1007.83 971.15 1062.5 972.915 1084.78 978.692ZM1651.08 975.305C1725.72 988.274 1784.13 1043.31 1803.03 1118.48C1807.16 1134.93 1808.79 1184.69 1805.45 1192.58C1803.68 1196.78 1770.66 1213.32 1771.87 1209.4C1779.37 1185.11 1780.59 1144.03 1774.47 1121.67C1750.72 1034.88 1665.22 984.424 1578.95 1006.3C1573.19 1007.76 1568.47 1008.83 1568.47 1008.67C1568.47 1008.52 1572.12 1001.1 1576.59 992.184C1584.88 975.636 1584.95 975.562 1594.73 974.024C1604.68 972.459 1639.22 973.246 1651.08 975.305ZM-95.3941 1034.36C-10.5057 1052.98 32.1654 1153.97 -13.5348 1228.11C-81.1053 1337.73 -249.461 1294.9 -254.976 1166.68C-258.722 1079.59 -181.422 1015.49 -95.3941 1034.36ZM482.93 1033.49C583.138 1053.57 621.311 1180.24 548.92 1252.47C480.459 1320.78 363.081 1293.74 332.84 1202.7C301.073 1107.05 383.924 1013.65 482.93 1033.49ZM1067.5 1034.36C1164.32 1055.6 1201.02 1177.55 1132.43 1250.13C1053.45 1333.71 912.856 1281.46 907.919 1166.68C904.173 1079.59 981.473 1015.49 1067.5 1034.36ZM1645.82 1033.49C1758.67 1056.1 1787.01 1206.59 1690.34 1269.91C1619.65 1316.22 1522.27 1282.58 1495.74 1202.7C1463.97 1107.05 1546.82 1013.65 1645.82 1033.49ZM-142.936 1060.48C-225.482 1077.88 -255.242 1174.14 -196.302 1233.09C-132.847 1296.56 -23.3997 1250.9 -23.3997 1160.96C-23.3997 1098.68 -83.6922 1048 -142.936 1060.48ZM435.573 1061.3C360.019 1078.19 328.674 1168.12 378.116 1226.15C436.11 1294.21 545.494 1261.62 557.48 1172.71C566.508 1105.74 501.704 1046.52 435.573 1061.3ZM1019.96 1060.48C937.413 1077.88 907.653 1174.14 966.593 1233.09C1030.05 1296.56 1139.5 1250.9 1139.5 1160.96C1139.5 1098.68 1079.2 1048 1019.96 1060.48ZM1598.47 1061.3C1522.91 1078.19 1491.57 1168.12 1541.01 1226.15C1599.01 1294.21 1708.39 1261.62 1720.38 1172.71C1729.4 1105.74 1664.6 1046.52 1598.47 1061.3ZM-113.863 1089.63C-75.6001 1095.59 -47.4119 1134.01 -53.7808 1171.52C-65.7425 1242 -158.376 1255.8 -190.124 1191.84L-196.302 1179.39V1160.96V1142.54L-190.124 1130.09C-175.434 1100.49 -145.635 1084.68 -113.863 1089.63ZM470.478 1090.34C493.092 1095.12 510.728 1108.93 521.229 1130.09L527.407 1142.54V1160.96V1179.39L521.229 1191.84C489.481 1255.8 396.848 1242 384.886 1171.52C376.703 1123.33 422.239 1080.13 470.478 1090.34ZM1049.03 1089.63C1087.29 1095.59 1115.48 1134.01 1109.11 1171.52C1097.15 1242 1004.52 1255.8 972.771 1191.84L966.593 1179.39V1160.96V1142.54L972.771 1130.09C987.461 1100.49 1017.26 1084.68 1049.03 1089.63ZM1641.42 1092.39C1682.49 1105.15 1703.18 1153.44 1684.08 1191.93C1661.61 1237.19 1603.52 1247.13 1568.07 1211.78C1515.01 1158.85 1569.56 1070.06 1641.42 1092.39ZM-280.345 1121.67C-311.186 1237.4 -202.386 1345.4 -84.9543 1315.63C-79.1865 1314.17 -74.4678 1313.1 -74.4678 1313.25C-74.4678 1315.76 -91.278 1345.97 -93.096 1346.73C-98.9659 1349.2 -142.078 1349.23 -156.177 1346.79C-248.804 1330.7 -313.076 1254.18 -312.873 1160.24C-312.799 1125.87 -313.715 1127.92 -294.054 1118.24C-275.037 1108.89 -276.819 1108.44 -280.345 1121.67ZM301.424 1120.44C271.739 1238.94 377.561 1345.46 495.568 1315.87C507.654 1312.84 507.562 1312.4 498.622 1330.51C489.336 1349.33 492.192 1348.18 455.182 1348.04C362.07 1347.71 288.615 1286.28 270.422 1193.55C267.671 1179.54 267.085 1145.12 269.396 1133.29L270.676 1126.73L286.691 1118.66C305.59 1109.15 304.293 1108.99 301.424 1120.44ZM882.55 1121.67C851.709 1237.4 960.509 1345.4 1077.94 1315.63C1083.71 1314.17 1088.43 1313.1 1088.43 1313.25C1088.43 1315.76 1071.62 1345.97 1069.8 1346.73C1063.93 1349.2 1020.82 1349.23 1006.72 1346.79C914.091 1330.7 849.819 1254.18 850.022 1160.24C850.096 1125.87 849.18 1127.92 868.841 1118.24C887.858 1108.89 886.076 1108.44 882.55 1121.67ZM1464.32 1120.44C1434.61 1239.03 1540.31 1345.31 1658.62 1315.82C1670.53 1312.85 1670.45 1312.42 1661.52 1330.51C1652.23 1349.33 1655.09 1348.18 1618.08 1348.04C1507.01 1347.64 1419.9 1252.78 1431.22 1144.58C1433.23 1125.35 1431.58 1127.61 1450.51 1118.16C1468.39 1109.24 1467.18 1109.04 1464.32 1120.44ZM-141.444 1120.44C-150.918 1124.07 -161.071 1133.7 -165.165 1142.94C-184.669 1186.96 -128.899 1225.54 -94.7871 1191.63C-61.2485 1158.29 -97.1771 1103.47 -141.444 1120.44ZM441.321 1119.84C425.225 1125.12 412.868 1142.98 412.868 1160.96C412.868 1201.74 465.061 1220.22 490.279 1188.37C517.697 1153.74 483.57 1105.97 441.321 1119.84ZM1021.45 1120.44C1011.98 1124.07 1001.82 1133.7 997.73 1142.94C978.226 1186.96 1034 1225.54 1068.11 1191.63C1101.65 1158.29 1065.72 1103.47 1021.45 1120.44ZM1604.22 1119.84C1588.12 1125.12 1575.76 1142.98 1575.76 1160.96C1575.76 1201.74 1627.96 1220.22 1653.17 1188.37C1680.59 1153.74 1646.46 1105.97 1604.22 1119.84ZM-342.51 1165.7C-339.008 1287.31 -245.998 1378.05 -124.723 1378.17L-101.296 1378.19L-104.458 1392.3L-107.618 1406.41L-132.262 1406.23C-262.062 1405.29 -366.694 1300.53 -371.699 1166.51L-372.553 1143.65L-369.054 1142.93C-367.131 1142.53 -361.617 1141.25 -356.802 1140.08C-342.036 1136.48 -343.423 1134 -342.51 1165.7ZM238.584 1161.33C238.983 1282.97 334.311 1377.93 456.276 1378.18C469.318 1378.2 479.982 1378.67 479.978 1379.21C479.973 1379.75 479.365 1382.49 478.627 1385.29C477.887 1388.09 476.511 1394.25 475.57 1398.97L473.857 1407.55L448.835 1406.73C317.148 1402.41 214.155 1299.89 210.431 1169.41L209.696 1143.63L213.158 1142.84C215.062 1142.4 220.56 1141.13 225.375 1140.01C230.19 1138.89 235.115 1137.91 236.318 1137.82C238.177 1137.68 238.519 1141.22 238.584 1161.33ZM820.385 1165.7C823.887 1287.31 916.896 1378.05 1038.17 1378.17L1061.6 1378.19L1058.44 1392.3L1055.28 1406.41L1030.63 1406.23C898.293 1405.27 790.895 1294.38 790.784 1158.58L790.773 1143.81L802.81 1140.9C809.432 1139.31 815.911 1137.92 817.213 1137.83C819.291 1137.68 819.674 1141.05 820.385 1165.7ZM1401.48 1161.33C1401.88 1282.97 1497.21 1377.93 1619.17 1378.18C1632.21 1378.2 1642.88 1378.67 1642.87 1379.21C1642.87 1379.75 1642.26 1382.49 1641.52 1385.29C1640.78 1388.09 1639.41 1394.25 1638.46 1398.97L1636.75 1407.55L1611.73 1406.73C1480.04 1402.41 1377.05 1299.89 1373.33 1169.41L1372.59 1143.63L1376.05 1142.84C1377.96 1142.4 1383.46 1141.13 1388.27 1140.01C1393.09 1138.89 1398.01 1137.91 1399.21 1137.82C1401.07 1137.68 1401.41 1141.22 1401.48 1161.33ZM-114.958 1152.24C-109.876 1157.81 -109.763 1163.71 -114.632 1169.48C-123.549 1180.06 -138.668 1174.51 -138.668 1160.65C-138.668 1147.37 -124.113 1142.21 -114.958 1152.24ZM180.143 1160.96V1175.53H165.552H150.962V1160.96V1146.4H165.552H180.143V1160.96ZM462.507 1148.6C475.249 1155.17 470.863 1174.74 456.647 1174.74C443.452 1174.74 437.663 1160.68 447.011 1151.35C452.464 1145.91 456.059 1145.27 462.507 1148.6ZM761.591 1160.96V1175.53H747H732.409V1160.96V1146.4H747H761.591V1160.96ZM1047.94 1152.24C1053.59 1158.44 1053.29 1164.28 1046.99 1170.58C1037.61 1179.94 1024.23 1174.1 1024.23 1160.65C1024.23 1147.37 1038.78 1142.21 1047.94 1152.24ZM1343.04 1160.96V1175.53H1328.45H1313.86V1160.96V1146.4H1328.45H1343.04V1160.96ZM1625.4 1148.6C1638.14 1155.17 1633.76 1174.74 1619.54 1174.74C1606.35 1174.74 1600.56 1160.68 1609.91 1151.35C1615.36 1145.91 1618.95 1145.27 1625.4 1148.6ZM185.294 1215.59C186.579 1221.2 188.069 1227.5 188.606 1229.59L189.584 1233.4L160.789 1234.2C38.5153 1237.61 -55.5259 1335.35 -52.3553 1455.74L-51.8519 1474.88L-66.0372 1472L-80.2239 1469.13L-81.2263 1462.53C-82.5862 1453.6 -79.4886 1416.72 -76.0247 1400.59C-51.4988 1286.37 51.1175 1203.6 166.231 1205.16L182.959 1205.39L185.294 1215.59ZM764.052 1206.48C765.094 1208.1 766.374 1213.22 769.648 1228.87L770.598 1233.41L742.385 1234.22C620.579 1237.73 529.53 1330.72 529.492 1451.66L529.485 1475.06L515.314 1471.89L501.143 1468.73L501.323 1444.12C502.198 1323.65 596.88 1220.34 719.277 1206.3C737.034 1204.26 762.687 1204.37 764.052 1206.48ZM1348.19 1215.59C1349.47 1221.2 1350.96 1227.5 1351.5 1229.59L1352.48 1233.4L1323.68 1234.2C1203.03 1237.56 1111.49 1330.24 1111.12 1449.38L1111.04 1474.88L1096.86 1472L1082.67 1469.13L1081.67 1462.53C1080.31 1453.6 1083.41 1416.72 1086.87 1400.59C1111.4 1286.37 1214.01 1203.6 1329.13 1205.16L1345.85 1205.39L1348.19 1215.59ZM196.923 1265.24C200.145 1266.07 217.328 1296.94 215.553 1298.71C215.315 1298.95 210.533 1297.76 204.927 1296.06C188.958 1291.22 142.937 1291.37 125.428 1296.32C67.4695 1312.71 25.8738 1354.27 10.549 1411.11C5.22474 1430.85 4.89061 1471.16 9.90113 1489.32C13.8086 1503.48 15.3012 1503 -3.70197 1493.66C-22.3127 1484.51 -21.2971 1486.32 -22.819 1459.58C-28.1213 1366.45 41.8873 1280.33 135.275 1265.1C147.966 1263.03 188.641 1263.12 196.923 1265.24ZM778.665 1265.36C782.843 1266.95 799.521 1299.99 795.522 1298.76C771.189 1291.27 730.041 1290.05 707.637 1296.17C620.73 1319.87 570.174 1405.26 592.075 1491.35C593.539 1497.11 594.611 1501.82 594.456 1501.82C591.95 1501.82 561.69 1485.04 560.925 1483.23C558.453 1477.37 558.415 1434.33 560.868 1420.25C575.033 1338.95 639.907 1275.98 721.466 1264.34C731.844 1262.86 774.059 1263.62 778.665 1265.36ZM1359.82 1265.24C1363.04 1266.07 1380.22 1296.94 1378.45 1298.71C1378.21 1298.95 1373.43 1297.76 1367.82 1296.06C1353.64 1291.76 1305.89 1291.4 1291.32 1295.48C1230.65 1312.48 1189.03 1353.28 1173.47 1411.02C1168.12 1430.86 1167.77 1471.12 1172.8 1489.32C1176.7 1503.48 1178.2 1503 1159.19 1493.66C1140.58 1484.51 1141.6 1486.32 1140.08 1459.58C1134.77 1366.45 1204.78 1280.33 1298.17 1265.1C1310.86 1263.03 1351.54 1263.12 1359.82 1265.24ZM187.535 1322.73C303.952 1343.31 335.448 1495.28 236.742 1560.14C153.267 1614.99 40.9987 1558.1 35.4673 1458.14C30.8814 1375.24 106.042 1308.32 187.535 1322.73ZM781.681 1325.51C879.961 1354.71 910.113 1476.26 836.315 1545.76C753.547 1623.71 617.004 1565.13 617.166 1451.75C617.261 1386.3 660.655 1334.89 726.573 1322.13C736.211 1320.26 771.243 1322.41 781.681 1325.51ZM1350.43 1322.73C1466.86 1343.32 1498.36 1495.27 1399.64 1560.14C1316.16 1614.99 1203.89 1558.1 1198.36 1458.14C1193.78 1375.24 1268.94 1308.32 1350.43 1322.73ZM-415.895 1363.86V1379.06L-406.242 1379.84C-385.572 1381.49 -360.937 1399.05 -351.097 1419.12C-329.625 1462.94 -356.479 1514.27 -405.144 1522.44L-415.895 1524.24V1538.52V1552.81H-409.981C-384.933 1552.81 -353.484 1536.51 -336.351 1514.65C-285.856 1450.22 -325.128 1359.15 -407.505 1349.63L-415.895 1348.66V1363.86ZM150.797 1350.24C52.8611 1365.76 31.6927 1498.36 120.191 1541.97C207.264 1584.87 299.336 1493.48 256.769 1406.41C237.702 1367.41 192.76 1343.59 150.797 1350.24ZM732.053 1350.36C654.551 1362.52 619.029 1452.86 667.456 1514.65C713.044 1572.81 806.993 1562.31 838.796 1495.49C873.658 1422.25 811.606 1337.88 732.053 1350.36ZM1313.69 1350.24C1215.76 1365.76 1194.59 1498.36 1283.09 1541.97C1370.24 1584.91 1462.26 1493.58 1419.66 1406.41C1400.61 1367.42 1355.66 1343.59 1313.69 1350.24ZM1894.95 1350.45C1827.73 1360.28 1788.76 1433.85 1818.1 1495.49C1833.38 1527.6 1871.15 1552.81 1903.98 1552.81H1909.89V1538.52V1524.24L1899.14 1522.44C1850.48 1514.27 1823.62 1462.94 1845.1 1419.12C1854.94 1399.05 1879.57 1381.49 1900.24 1379.84L1909.89 1379.06V1363.97C1909.89 1346.78 1911.31 1348.06 1894.95 1350.45ZM187.202 1382.41C239.2 1398.44 254.871 1465.1 215.512 1502.83C167.457 1548.9 89.4434 1512.33 93.7127 1445.74C96.6397 1400.07 142.884 1368.74 187.202 1382.41ZM777.933 1386.36C841.996 1418.05 828.168 1510.53 757.578 1522.48C709.99 1530.53 666.39 1485.52 676.034 1438.3C685.676 1391.11 735.838 1365.54 777.933 1386.36ZM1350.1 1382.41C1402.1 1398.44 1417.77 1465.1 1378.41 1502.83C1330.35 1548.9 1252.34 1512.33 1256.61 1445.74C1259.53 1400.07 1305.78 1368.74 1350.1 1382.41ZM352.148 1422.56C354.242 1431.27 353.997 1470.48 351.77 1482.89C334.457 1579.35 244.425 1648.55 148.96 1638.76C139.629 1637.81 131.751 1636.79 131.455 1636.5C130.314 1635.39 115.399 1604.58 115.806 1604.17C116.043 1603.93 122.079 1605.2 129.221 1606.99C202.559 1625.32 286.619 1581.77 313.821 1511.35C325.567 1480.94 328.511 1442.51 321.283 1413.94C319.492 1406.87 318.027 1400.93 318.027 1400.75C318.027 1400.57 325.396 1404.12 334.401 1408.63C350.101 1416.51 350.834 1417.09 352.148 1422.56ZM1515.04 1422.56C1517.14 1431.27 1516.89 1470.48 1514.67 1482.89C1497.35 1579.35 1407.32 1648.55 1311.85 1638.76C1302.52 1637.81 1294.65 1636.79 1294.35 1636.5C1293.21 1635.39 1278.29 1604.58 1278.7 1604.17C1278.94 1603.93 1284.97 1605.2 1292.12 1606.99C1365.45 1625.32 1449.51 1581.77 1476.72 1511.35C1488.46 1480.94 1491.41 1442.51 1484.18 1413.94C1482.39 1406.87 1480.92 1400.93 1480.92 1400.75C1480.92 1400.57 1488.29 1404.12 1497.3 1408.63C1513 1416.51 1513.73 1417.09 1515.04 1422.56ZM917.573 1409.28C935.558 1418.05 934.524 1415.41 934.39 1452.3C934.052 1545.03 871.964 1619.14 779.83 1636.77C765.669 1639.48 731.249 1640.04 719.277 1637.75L712.711 1636.49L704.47 1620C697.133 1605.31 696.572 1603.58 699.364 1604.21C701.087 1604.6 707.422 1606.08 713.441 1607.51C822.115 1633.21 928.581 1528.6 904.032 1420.25C899.762 1401.41 899.687 1400.9 901.249 1401.48C902.068 1401.79 909.414 1405.3 917.573 1409.28ZM-415.895 1422.07V1437.37L-411.519 1438.24C-398.527 1440.83 -400.375 1465.41 -413.56 1465.41C-415.545 1465.41 -415.895 1467.59 -415.895 1479.97V1494.54H-411.777C-397.554 1494.54 -379.326 1480.34 -374.617 1465.6C-366.137 1439.05 -382.505 1412.1 -409.755 1407.75L-415.895 1406.77V1422.07ZM153.88 1409.09C105.148 1425.21 114.6 1493.81 165.552 1493.81C221.663 1493.81 223.913 1411.57 167.906 1407.72C163.402 1407.41 157.09 1408.03 153.88 1409.09ZM733.127 1409.67C701.972 1420.8 693.19 1458.32 716.301 1481.54C749.409 1514.79 804.234 1479.58 787.766 1435.64C779.736 1414.22 754.269 1402.11 733.127 1409.67ZM1316.77 1409.09C1268.04 1425.21 1277.49 1493.81 1328.45 1493.81C1384.56 1493.81 1386.81 1411.57 1330.8 1407.72C1326.3 1407.41 1319.98 1408.03 1316.77 1409.09ZM1896.02 1409.76C1872.76 1417.79 1861 1441.75 1868.62 1465.6C1873.33 1480.34 1891.55 1494.54 1905.78 1494.54H1909.89V1479.97C1909.89 1467.59 1909.54 1465.41 1907.56 1465.41C1894.37 1465.41 1892.53 1440.83 1905.52 1438.24L1909.89 1437.37V1422.25C1909.89 1404.9 1909.95 1404.95 1896.02 1409.76ZM400.031 1431.18L411.269 1433.62L412.25 1440.15C413.618 1449.25 411.686 1476.25 408.328 1494.99C386.886 1614.62 276.824 1703.09 156.62 1697.32L147.687 1696.89L145.207 1684.41C143.841 1677.55 142.438 1671.19 142.086 1670.28C141.622 1669.07 148.179 1668.6 165.901 1668.56C287.169 1668.29 382.3 1573.91 382.84 1453.33C382.954 1428.19 383.045 1427.43 385.875 1428.08C387.48 1428.45 393.851 1429.84 400.031 1431.18ZM974.408 1429.57C978.937 1430.7 985.199 1432.05 988.323 1432.59L994.004 1433.57L993.179 1458.59C989.158 1580.85 900.87 1678.32 778.455 1695.65C768.193 1697.1 731.172 1697.72 729.91 1696.46C729.201 1695.76 723.758 1672.65 723.692 1670.07C723.669 1669.16 732.556 1668.58 747.365 1668.53C869.248 1668.14 964.396 1572.91 964.514 1451.2C964.526 1438.19 964.905 1427.53 965.354 1427.53C965.804 1427.53 969.878 1428.45 974.408 1429.57ZM1562.93 1431.18L1574.16 1433.62L1575.14 1440.15C1576.51 1449.25 1574.58 1476.25 1571.22 1494.99C1549.79 1614.58 1439.68 1703.09 1319.51 1697.32L1310.58 1696.89L1308.1 1684.41C1306.74 1677.55 1305.33 1671.19 1304.98 1670.28C1304.52 1669.07 1311.07 1668.6 1328.8 1668.56C1452.39 1668.28 1549.76 1568.36 1546.35 1445.31C1545.87 1428.02 1545.95 1427.42 1548.77 1428.07C1550.38 1428.44 1556.75 1429.84 1562.93 1431.18ZM-110.945 1450.93V1465.41H-125.536H-140.127V1450.93V1436.46H-125.536H-110.945V1450.93ZM471.232 1450.9V1465.41H456.641H442.05V1450.91V1436.42L456.641 1436.4L471.232 1436.38V1450.9ZM1051.95 1450.91V1465.41H1037.36H1022.77V1450.9V1436.38L1037.36 1436.4L1051.95 1436.42V1450.91ZM1634.13 1450.9V1465.41H1619.54H1604.95V1450.91V1436.42L1619.54 1436.4L1634.13 1436.38V1450.9ZM175.493 1441.82C184.259 1450.95 178.292 1464.68 165.552 1464.68C159.891 1464.68 158.136 1463.98 155.212 1460.59C147.223 1451.32 153.369 1437.73 165.552 1437.73C170.243 1437.73 172.438 1438.63 175.493 1441.82ZM754.376 1439.23C766.072 1445.48 760.457 1465.41 747 1465.41C741.454 1465.41 732.409 1457.33 732.409 1452.37C732.409 1441.4 744.693 1434.06 754.376 1439.23ZM1338.39 1441.82C1347.15 1450.95 1341.19 1464.68 1328.45 1464.68C1322.79 1464.68 1321.03 1463.98 1318.11 1460.59C1310.12 1451.32 1316.26 1437.73 1328.45 1437.73C1333.14 1437.73 1335.33 1438.63 1338.39 1441.82ZM-149.601 1642.56C-191.885 1652.76 -223.407 1690.58 -227.057 1735.49L-228.074 1748H-212.553H-197.031V1738.68C-197.031 1711.87 -178.117 1684.87 -151.966 1674.35C-105.688 1655.74 -52.758 1691.29 -52.6034 1741.08L-52.5815 1748H-37.9906H-23.3997L-23.4245 1738.9C-23.601 1675.89 -87.0277 1627.46 -149.601 1642.56ZM433.296 1642.28C388.885 1652.39 354.654 1694.38 354.53 1738.9L354.505 1748H369.096H383.687L383.708 1741.08C383.863 1691.29 436.793 1655.74 483.071 1674.35C509.222 1684.87 528.136 1711.87 528.136 1738.68V1748H543.658H559.179L558.162 1735.49C553.023 1672.25 494.267 1628.39 433.296 1642.28ZM1013.29 1642.56C971.01 1652.76 939.488 1690.58 935.838 1735.49L934.821 1748H950.342H965.864V1738.68C965.864 1711.87 984.778 1684.87 1010.93 1674.35C1057.21 1655.74 1110.14 1691.29 1110.29 1741.08L1110.31 1748H1124.9H1139.5L1139.47 1738.9C1139.29 1675.89 1075.87 1627.46 1013.29 1642.56ZM1596.19 1642.28C1551.78 1652.39 1517.55 1694.38 1517.42 1738.9L1517.4 1748H1531.99H1546.58L1546.6 1741.08C1546.76 1691.29 1599.69 1655.74 1645.97 1674.35C1672.12 1684.87 1691.03 1711.87 1691.03 1738.68V1748H1706.55H1722.07L1721.06 1735.49C1715.92 1672.25 1657.16 1628.39 1596.19 1642.28ZM-143.775 1701.95C-157.97 1708.67 -167.422 1722.76 -168.938 1739.46L-169.714 1748H-154.191H-138.668V1741.89C-138.668 1729.29 -125.253 1722.98 -115.769 1731.12C-112.39 1734.02 -111.675 1735.8 -111.675 1741.32V1748H-96.5234H-81.3708L-82.0784 1738.17C-84.2569 1707.87 -116.405 1689 -143.775 1701.95ZM436.506 1702.93C421.977 1710.18 414.37 1721.67 413.184 1738.17L412.476 1748H427.629H442.78V1741.32C442.78 1735.8 443.495 1734.02 446.874 1731.12C456.358 1722.98 469.773 1729.29 469.773 1741.89V1748H485.296H500.819L500.043 1739.46C497.1 1707.05 465.105 1688.66 436.506 1702.93ZM1019.12 1701.95C1004.92 1708.67 995.473 1722.76 993.957 1739.46L993.181 1748H1008.7H1024.23V1741.89C1024.23 1729.29 1037.64 1722.98 1047.13 1731.12C1050.51 1734.02 1051.22 1735.8 1051.22 1741.32V1748H1066.37H1081.52L1080.82 1738.17C1078.64 1707.87 1046.49 1689 1019.12 1701.95ZM1599.4 1702.93C1584.87 1710.18 1577.26 1721.67 1576.08 1738.17L1575.37 1748H1590.52H1605.67V1741.32C1605.67 1735.8 1606.39 1734.02 1609.77 1731.12C1619.25 1722.98 1632.67 1729.29 1632.67 1741.89V1748H1648.19H1663.71L1662.94 1739.46C1660 1707.05 1628 1688.66 1599.4 1702.93Z" fill="#000C24"/>
</svg>
